# AST/ASF file generated using VICON BodyLanguage
# -----------------------------------------------
:version 1.10
:name VICON
:units
  mass 1.0
  length 0.45
  angle deg
:documentation
   .ast/.asf automatically generated from VICON data using
   VICON BodyBuilder and BodyLanguage model FoxedUp or BRILLIANT.MOD
:root
   order TX TY TZ RX RY RZ
   axis XYZ
   position 0 0 0  
   orientation 0 0 0 
:bonedata
  begin
     id 1 
     name lhipjoint
     direction 0.646821 -0.743844 0.168282 
     length 2.62284 
     axis 0 0 0  XYZ
  end
  begin
     id 2 
     name lfemur
     direction 0.34202 -0.939693 0  
     length 7.79098  
     axis 0 0 20  XYZ
    dof rx ry rz
    limits (-160.0 20.0)
           (-70.0 70.0)
           (-60.0 70.0)
  end
  begin
     id 3 
     name ltibia
     direction 0.34202 -0.939693 0   
     length 8.1986   
     axis 0 0 20   XYZ
    dof rx
    limits (-10.0 170.0)
  end
  begin
     id 4 
     name lfoot
     direction 0.0766762 -0.210666 0.974546   
     length 1.95107   
     axis -90 7.62852e-016 20   XYZ
    dof rx rz
    limits (-45.0 90.0)
           (-70.0 20.0)
  end
  begin
     id 5 
     name ltoes
     direction 1.53582e-011 -4.21539e-011 1   
     length 0.983514   
     axis -90 7.62852e-016 20   XYZ
    dof rx
    limits (-90.0 20.0)
  end
  begin
     id 6 
     name rhipjoint
     direction -0.658967 -0.733632 0.165972   
     length 2.65935  
     axis 0 0 0  XYZ 
  end
  begin
     id 7 
     name rfemur
     direction -0.34202 -0.939693 0   
     length 7.69405   
     axis 0 0 -20   XYZ
    dof rx ry rz
    limits (-160.0 20.0)
           (-70.0 70.0)
           (-70.0 60.0)
  end
  begin
     id 8 
     name rtibia
     direction -0.34202 -0.939693 0   
     length 8.15138   
     axis 0 0 -20   XYZ
    dof rx
    limits (-10.0 170.0)
 end
 begin
     id 9 
     name rfoot
     direction -0.0806473 -0.221577 0.971802   
     length 2.09362  
     axis -90 -7.62852e-016 -20   XYZ
    dof rx rz
    limits (-45.0 90.0)
           (-20.0 70.0)
  end
  begin
     id 10 
     name rtoes
     direction -1.53524e-011 -4.2203e-011 1   
     length 1.05224   
     axis -90 -7.62852e-016 -20   XYZ
    dof rx
    limits (-90.0 20.0)
  end
  begin
     id 11 
     name lowerback
     direction -0.0484271 0.997202 0.0569433   
     length 1.86801   
     axis 0 0 0   XYZ
    dof rx ry rz
    limits (-20.0 45.0)
           (-30.0 30.0)
           (-30.0 30.0)
  end
  begin
     id 12 
     name upperback
     direction 0.0148864 0.998882 0.0448682   
     length 1.86634   
     axis 0 0 0   XYZ
    dof rx ry rz
    limits (-20.0 45.0)
           (-30.0 30.0)
           (-30.0 30.0)
  end
  begin
     id 13 
     name thorax
     direction 0.0368776 0.99918 0.0167067   
     length 1.87554   
     axis 0 0 0   XYZ
    dof rx ry rz
    limits (-20.0 45.0)
           (-30.0 30.0)
           (-30.0 30.0)
  end
  begin
     id 14 
     name lowerneck
     direction -0.0200531 0.999751 0.00976032   
     length 1.82429   
     axis 0 0 0   XYZ
    dof rx ry rz
    limits (-20.0 45.0)
           (-30.0 30.0)
           (-30.0 30.0)
  end
  begin
     id 15 
     name upperneck
     direction 0.0113135 0.99728 -0.0728357   
     length 1.79098   
     axis 0 0 0   XYZ
    dof rx ry rz
    limits (-20.0 45.0)
           (-30.0 30.0)
           (-30.0 30.0)
  end
  begin
     id 16
     name head
     direction 0.00559662 0.999607 -0.0274604  
     length 1.88003  
     axis 0 0 0   XYZ
    dof rx ry rz
    limits (-20.0 45.0)
           (-30.0 30.0)
           (-30.0 30.0)
  end
  begin
     id 17 
     name lclavicle
     direction 0.931914 0.362632 -0.00585704  
     length 3.94155  
     axis 0 0 0   XYZ
    dof ry rz
    limits (-20.0 10.0)
           (0.0 20.0)
  end
  begin
     id 18 
     name lhumerus
     direction 1 -4.48969e-011 2.13403e-027   
     length 5.77473   
     axis 180 -30 -90   XYZ
    dof rx ry rz
    limits (-60.0 90.0)
           (-90.0 90.0)
           (-90.0 90.0)
  end
  begin
     id 19
     name lradius
     direction 1 -4.48969e-011 5.41017e-027   
     length 3.53732   
     axis 180 -30 -90   XYZ
    dof rx
    limits (-10.0 170.0)
  end
  begin
     id 20
     name lwrist
     direction 1 -4.48986e-011 1.36145e-026   
     length 1.76866   
     axis -8.75986e-015 90 90   XYZ
    dof ry
    limits (-180.0 0.0)
 end
  begin
     id 21 
     name lhand
     direction 1 -4.48703e-011 2.72291e-026   
     length 0.556229   
     axis -1.73745e-014 90 90   XYZ
    dof rx rz
    limits (-90.0 90.0)
           (-45.0 45.0)
  end
  begin
     id 22 
     name lfingers
     direction 1 -4.49204e-011 5.44582e-026   
     length 0.448446   
     axis -3.4749e-014 90 90   XYZ
    dof rx
    limits (0.0 90.0)
  end
  begin
     id 23
     name lthumb
     direction 0.707107 -6.34773e-011 0.707107   
     length 0.643881   
     axis -90 45 2.85299e-015   XYZ
    dof rx rz
    limits (-45.0 45.0)
           (-45.0 45.0)
  end
  begin
     id 24 
     name rclavicle
     direction -0.951782 0.300043 0.0639076   
     length 3.96398  
     axis 0 0 0   XYZ 
    dof ry rz
    limits (-10.0 20.0)
           (-20.0 0.0)
  end
  begin
     id 25 
     name rhumerus
     direction -1 -4.48967e-011 6.14867e-028  
     length 5.79581   
     axis 180 30 90   XYZ
    dof rx ry rz
    limits (-90.0 60.0)
           (-90.0 90.0)
           (-90.0 90.0)
  end
  begin
     id 26 
     name rradius
     direction -1 -4.48966e-011 9.26908e-027   
     length 3.37412   
     axis 180 30 90   XYZ
    dof rx
    limits (-10.0 170.0)
  end
  begin
     id 27 
     name rwrist
     direction -1 -4.48999e-011 1.36145e-026   
     length 1.68706   
     axis -8.75986e-015 -90 -90   XYZ
    dof ry
    limits (-180.0 0.0)
  end
  begin
     id 28
     name rhand
     direction -1 -4.49032e-011 2.72291e-026   
     length 0.680496   
     axis -1.73745e-014 -90 -90   XYZ
    dof rx rz
    limits (-90.0 90.0)
           (-45.0 45.0)
  end
  begin
     id 29
     name rfingers
     direction -1 -4.48876e-011 5.44582e-026   
     length 0.548633   
     axis -3.4749e-014 -90 -90   XYZ
    dof rx
    limits (0.0 90.0)
  end
  begin
     id 30
     name rthumb
     direction -0.707107 -6.34964e-011 0.707107   
     length 0.787731   
     axis -90 -45 -2.85299e-015   XYZ
    dof rx rz
    limits (-45.0 45.0)
           (-45.0 45.0)
  end
:hierarchy
  begin
    root lhipjoint rhipjoint lowerback
    lhipjoint lfemur
    lfemur ltibia
    ltibia lfoot
    lfoot ltoes
    rhipjoint rfemur
    rfemur rtibia
    rtibia rfoot
    rfoot rtoes
    lowerback upperback
    upperback thorax
    thorax lowerneck lclavicle rclavicle
    lowerneck upperneck
    upperneck head
    lclavicle lhumerus
    lhumerus lradius
    lradius lwrist
    lwrist lhand lthumb
    lhand lfingers
    rclavicle rhumerus
    rhumerus rradius
    rradius rwrist
    rwrist rhand rthumb
    rhand rfingers
  end

#!OML:ASF H:\Terrain\Patient Classification 1\PaulMetrics\March1\PaulMetrics.ASF
:FULLY-SPECIFIED
:DEGREES
189
root 17.4753 18.1013 6.25025 7.35891 -19.7282 6.43383
lowerback -5.77851 -1.83058 -5.25437
upperback -5.92563 -2.27705 1.54697
thorax -2.64435 -0.943292 4.47076
lowerneck -2.97002 0.233143 -1.69037
upperneck 8.78786 0.566267 -1.95907
head 3.34547 0.14172 -0.322792
rclavicle -2.38542e-015 9.54166e-015
rhumerus -58.2567 20.309 -98.3257
rradius 41.3517
rwrist -10.6881
rhand -9.2711 -32.9241
rfingers 7.12502
rthumb 16.6855 -62.227
lclavicle -2.38542e-015 9.54166e-015
lhumerus -46.571 -18.482 87.9428
lradius 74.1793
lwrist 7.51433
lhand -25.7304 -8.85756
lfingers 7.12502
lthumb 0.806106 21.1207
rfemur -36.9059 0.923159 25.6585
rtibia 32.4316
rfoot -8.28905 -17.6525
rtoes 1.00981
lfemur -11.9607 8.08549 -20.2303
ltibia 54.1592
lfoot 11.3305 -3.98492
ltoes -6.39951
190
root 17.3805 18.1025 6.39015 7.37237 -20.0644 6.51881
lowerback -6.00032 -1.91586 -5.4525
upperback -5.83074 -2.36916 1.59164
thorax -2.40362 -0.991561 4.61549
lowerneck -3.50803 0.0350218 -1.54321
upperneck 9.0009 0.333873 -2.24424
head 3.52422 0.0138694 -0.452191
rclavicle 4.48259e-014 -2.06736e-014
rhumerus -57.8243 20.7541 -98.3717
rradius 41.3633
rwrist -10.3272
rhand -8.86161 -33.0433
rfingers 7.12502
rthumb 17.0797 -62.3125
lclavicle 4.48259e-014 -2.06736e-014
lhumerus -46.8767 -17.9611 88.1122
lradius 73.345
lwrist 6.26375
lhand -23.1698 -8.99157
lfingers 7.12502
lthumb 3.27908 20.963
rfemur -36.5808 0.835867 25.8604
rtibia 32.795
rfoot -8.94759 -17.2968
rtoes 1.72889
lfemur -13.5947 7.83272 -20.0691
ltibia 56.6329
lfoot 12.1601 -3.84799
ltoes -4.65307
191
root 17.2898 18.1058 6.52483 7.53331 -20.34 5.96563
lowerback -5.88118 -1.95712 -5.0435
upperback -5.88287 -2.4442 1.79533
thorax -2.51961 -1.03497 4.59907
lowerneck -3.4127 -0.14328 -1.52296
upperneck 8.8492 0.0929867 -2.31981
head 3.45207 -0.105375 -0.489302
rclavicle -2.28602e-015 -6.36111e-015
rhumerus -57.6229 20.9974 -98.3341
rradius 41.5172
rwrist -10.1565
rhand -8.66379 -33.4019
rfingers 7.12502
rthumb 17.2701 -62.6545
lclavicle -2.28602e-015 -6.36111e-015
lhumerus -47.4329 -17.6159 88.4979
lradius 72.3929
lwrist 5.31586
lhand -22.4475 -8.84883
lfingers 7.12502
lthumb 3.9766 21.0938
rfemur -36.1224 0.864116 26.6788
rtibia 33.1074
rfoot -9.91911 -17.0491
rtoes 1.88568
lfemur -15.16 7.64216 -19.2357
ltibia 59.0638
lfoot 12.0056 -3.65244
ltoes -6.02615
192
root 17.2017 18.107 6.65517 7.51073 -20.6149 5.72712
lowerback -5.54527 -2.00231 -4.95518
upperback -6.01032 -2.5254 1.9254
thorax -2.8286 -1.06476 4.69691
lowerneck -2.7488 -0.268817 -1.97495
upperneck 8.26577 -0.124688 -1.76177
head 3.12233 -0.194849 -0.232732
rclavicle -2.25621e-014 -2.8625e-014
rhumerus -57.5506 21.1872 -98.2576
rradius 41.6936
rwrist -10.0536
rhand -8.31491 -33.249
rfingers 7.12502
rthumb 17.6058 -62.4719
lclavicle -2.25621e-014 -2.8625e-014
lhumerus -48.0768 -17.2054 89.0189
lradius 71.3156
lwrist 4.55813
lhand -22.0211 -8.91837
lfingers 7.12502
lthumb 4.38836 21.0162
rfemur -35.5428 0.893833 27.1249
rtibia 33.2832
rfoot -10.7913 -16.7899
rtoes 2.88691
lfemur -16.6121 7.45698 -18.7865
ltibia 61.3728
lfoot 11.0066 -3.70701
ltoes -8.64377
193
root 17.1136 18.107 6.79067 7.44336 -21.0521 5.755
lowerback -5.69487 -1.96671 -4.96366
upperback -5.92553 -2.46994 1.87535
thorax -2.66441 -1.04444 4.6441
lowerneck -2.36322 -0.40954 -2.39272
upperneck 7.71988 -0.358139 -1.1507
head 2.86632 -0.292705 0.0308723
rclavicle -1.43125e-014 -2.3059e-014
rhumerus -57.2391 21.184 -98.0542
rradius 41.9302
rwrist -9.79569
rhand -8.2208 -32.9046
rfingers 7.12502
rthumb 17.6964 -62.1193
lclavicle -1.43125e-014 -2.3059e-014
lhumerus -48.3254 -16.9793 89.3269
lradius 70.1702
lwrist 3.77521
lhand -21.2714 -9.50217
lfingers 7.12502
lthumb 5.11229 20.4162
rfemur -34.9678 0.946802 27.2821
rtibia 33.3483
rfoot -11.2941 -16.4006
rtoes 3.80605
lfemur -18.0383 7.33408 -18.7019
ltibia 63.4554
lfoot 9.13535 -3.82388
ltoes -14.1276
194
root 17.0277 18.1118 6.93252 7.634 -21.5744 5.31095
lowerback -6.12941 -1.87722 -4.44824
upperback -5.80046 -2.34678 1.9278
thorax -2.31868 -1.01191 4.39532
lowerneck -2.23033 -0.640237 -2.43095
upperneck 7.41977 -0.674469 -1.14628
head 2.74248 -0.446454 0.0299346
rclavicle -3.86636e-014 -1.59028e-015
rhumerus -56.9079 21.3775 -97.9874
rradius 42.2521
rwrist -9.95699
rhand -8.54835 -32.9687
rfingers 7.12502
rthumb 17.3812 -62.2115
lclavicle -3.86636e-014 -1.59028e-015
lhumerus -48.4857 -16.8149 89.5577
lradius 68.9511
lwrist 2.95945
lhand -20.4591 -9.94025
lfingers 7.12502
lthumb 5.89663 19.9577
rfemur -34.3774 1.096 27.9026
rtibia 33.3789
rfoot -11.7619 -16.0072
rtoes 2.85428
lfemur -19.4918 7.24723 -18.1459
ltibia 65.3
lfoot 7.28699 -3.88282
ltoes -18.9406
195
root 16.9424 18.1207 7.06716 7.81129 -22.0578 4.95822
lowerback -6.27562 -1.85983 -4.22558
upperback -5.82633 -2.32618 2.09041
thorax -2.26743 -1.0075 4.43605
lowerneck -2.21678 -0.882714 -2.34526
upperneck 7.36341 -0.981422 -1.49243
head 2.72051 -0.607351 -0.104694
rclavicle 3.11098e-014 1.11319e-014
rhumerus -56.6814 21.8206 -97.9617
rradius 42.5606
rwrist -10.3035
rhand -8.71886 -33.0007
rfingers 7.12502
rthumb 17.2171 -62.258
lclavicle 3.11098e-014 1.11319e-014
lhumerus -48.818 -16.3578 89.9267
lradius 67.6888
lwrist 2.22328
lhand -19.9882 -9.98762
lfingers 7.12502
lthumb 6.35125 19.8972
rfemur -33.7691 1.22071 28.4281
rtibia 33.3139
rfoot -12.1706 -15.6532
rtoes 1.25134
lfemur -20.9305 7.06227 -17.7088
ltibia 66.8841
lfoot 6.0442 -3.79164
ltoes -20.2055
196
root 16.8561 18.1312 7.19106 7.725 -22.6355 5.00081
lowerback -6.17475 -1.79958 -4.37558
upperback -5.83474 -2.245 2.09223
thorax -2.33688 -0.960022 4.53036
lowerneck -2.11733 -1.07228 -2.39059
upperneck 7.14516 -1.24086 -1.48439
head 2.63035 -0.733974 -0.100498
rclavicle -1.75924e-014 -2.22639e-014
rhumerus -56.3147 21.7697 -97.6641
rradius 42.8368
rwrist -10.2691
rhand -8.8867 -32.9853
rfingers 7.12502
rthumb 17.0555 -62.2566
lclavicle -1.75924e-014 -2.22639e-014
lhumerus -49.1348 -16.1592 90.3393
lradius 66.41
lwrist 1.77356
lhand -20.4503 -10.1667
lfingers 7.12502
lthumb 5.90507 19.731
rfemur -33.0579 1.51739 28.5097
rtibia 33.1604
rfoot -12.5167 -15.4091
rtoes 1.14208
lfemur -22.2308 6.83116 -17.701
ltibia 68.2139
lfoot 4.97643 -3.36138
ltoes -20.7927
197
root 16.7742 18.1425 7.31446 7.70616 -23.3378 4.82255
lowerback -6.15179 -1.63892 -4.08776
upperback -5.80312 -2.04417 2.00984
thorax -2.34828 -0.870818 4.29139
lowerneck -1.81076 -1.2932 -2.3802
upperneck 6.68166 -1.5635 -1.34221
head 2.4219 -0.882425 -0.0615113
rclavicle 1.54058e-014 1.51076e-014
rhumerus -55.967 21.5043 -97.3775
rradius 43.2062
rwrist -10.2222
rhand -9.1949 -32.8931
rfingers 7.12502
rthumb 16.7588 -62.1898
lclavicle 1.54058e-014 1.51076e-014
lhumerus -49.4391 -16.3691 90.6997
lradius 65.0466
lwrist 1.60111
lhand -20.9242 -10.6891
lfingers 7.12502
lthumb 5.44753 19.2208
rfemur -32.3181 2.00253 28.7678
rtibia 33.0396
rfoot -12.8637 -15.2116
rtoes 1.30727
lfemur -23.4985 6.62247 -17.4629
ltibia 69.3269
lfoot 4.02238 -2.80992
ltoes -20.8014
198
root 16.6939 18.1564 7.43854 7.63237 -24.1616 4.88751
lowerback -6.16515 -1.4788 -4.01762
upperback -5.8027 -1.83581 1.87879
thorax -2.36733 -0.771007 4.12463
lowerneck -1.42431 -1.4906 -2.44616
upperneck 6.18279 -1.8569 -1.13578
head 2.19141 -1.01666 0.0132527
rclavicle 5.31749e-014 -2.14687e-014
rhumerus -55.7903 21.4489 -97.222
rradius 43.7169
rwrist -10.3772
rhand -9.44988 -32.6005
rfingers 7.12502
rthumb 16.5133 -61.9178
lclavicle 5.31749e-014 -2.14687e-014
lhumerus -49.7424 -16.4574 90.9953
lradius 63.5797
lwrist 1.47325
lhand -20.5365 -10.9943
lfingers 7.12502
lthumb 5.82181 18.9057
rfemur -31.6502 2.47875 28.7777
rtibia 32.9833
rfoot -13.3692 -14.9799
rtoes 1.14905
lfemur -24.6639 6.4502 -17.5298
ltibia 70.1499
lfoot 2.94545 -2.24384
ltoes -21.3706
199
root 16.6084 18.1771 7.56156 7.25178 -25.079 5.59653
lowerback -6.09748 -1.35217 -4.68851
upperback -5.8098 -1.64886 1.62494
thorax -2.42597 -0.658287 4.24956
lowerneck -1.39703 -1.62207 -2.45006
upperneck 6.1252 -2.04078 -1.02301
head 2.17029 -1.1047 0.0455914
rclavicle -1.799e-014 1.74931e-014
rhumerus -55.6322 21.3474 -97.0862
rradius 44.249
rwrist -10.7191
rhand -10.5721 -32.012
rfingers 7.12502
rthumb 15.4327 -61.4158
lclavicle -1.799e-014 1.74931e-014
lhumerus -50.0346 -16.4795 91.2507
lradius 62.0642
lwrist 1.59895
lhand -19.9616 -10.9183
lfingers 7.12502
lthumb 6.37692 18.9657
rfemur -31.0099 3.04775 28.1156
rtibia 33.0308
rfoot -13.9214 -14.7668
rtoes 1.80764
lfemur -25.6445 6.15626 -18.2843
ltibia 70.665
lfoot 1.94906 -1.53814
ltoes -20.5794
200
root 16.525 18.1911 7.68174 7.052 -25.9015 5.9989
lowerback -6.06918 -1.2975 -5.07267
upperback -5.83994 -1.5676 1.45098
thorax -2.48048 -0.606406 4.28998
lowerneck -1.42259 -1.65118 -2.34576
upperneck 6.16864 -2.0879 -0.923986
head 2.18937 -1.12391 0.0575265
rclavicle 5.1684e-015 1.35174e-014
rhumerus -55.3122 21.2414 -97.0103
rradius 44.559
rwrist -10.9216
rhand -11.8476 -31.597
rfingers 7.12502
rthumb 14.2038 -61.0914
lclavicle 5.1684e-015 1.35174e-014
lhumerus -50.3835 -16.4597 91.4195
lradius 60.5478
lwrist 1.95099
lhand -19.5332 -10.8454
lfingers 7.12502
lthumb 6.79045 19.0257
rfemur -30.4678 3.67865 27.7535
rtibia 33.1136
rfoot -14.196 -14.5155
rtoes 2.8063
lfemur -26.7605 5.76747 -18.6848
ltibia 71.0223
lfoot 1.1488 -0.942226
ltoes -19.9596
201
root 16.4469 18.186 7.7996 6.92283 -26.7309 6.2952
lowerback -6.13966 -1.24554 -5.27079
upperback -5.84991 -1.49137 1.29173
thorax -2.46122 -0.565658 4.23782
lowerneck -1.09541 -1.65639 -2.6163
upperneck 5.81613 -2.13005 -0.362583
head 2.02686 -1.13247 0.283274
rclavicle 3.03147e-014 4.77083e-015
rhumerus -54.9296 21.1609 -96.8723
rradius 44.9193
rwrist -10.8445
rhand -11.9909 -31.8007
rfingers 7.12502
rthumb 14.0658 -61.3047
lclavicle 3.03147e-014 4.77083e-015
lhumerus -50.7303 -16.3769 91.5173
lradius 59.0661
lwrist 2.09847
lhand -19.1518 -10.9891
lfingers 7.12502
lthumb 7.15865 18.8698
rfemur -29.9844 4.2565 27.5129
rtibia 33.1831
rfoot -14.3563 -14.2852
rtoes 1.98856
lfemur -27.9489 5.47891 -18.968
ltibia 71.2881
lfoot -0.0989946 -0.253414
ltoes -20.5789
202
root 16.3624 18.1985 7.92024 6.6493 -27.7336 6.67738
lowerback -6.20016 -1.13117 -5.52551
upperback -5.81357 -1.32873 1.11999
thorax -2.40858 -0.481782 4.20819
lowerneck -0.984071 -1.75784 -2.69263
upperneck 5.63237 -2.27428 -0.248169
head 1.95179 -1.20131 0.330629
rclavicle 1.81888e-014 -1.19271e-014
rhumerus -54.7308 21.1843 -96.7268
rradius 45.6753
rwrist -10.9965
rhand -12.0676 -32.2685
rfingers 7.12502
rthumb 13.9919 -61.7776
lclavicle 1.81888e-014 -1.19271e-014
lhumerus -51.1234 -16.2272 91.6215
lradius 57.6783
lwrist 2.3456
lhand -18.9993 -11.1472
lfingers 7.12502
lthumb 7.3058 18.7067
rfemur -29.2929 4.87838 27.1929
rtibia 33.1464
rfoot -14.4509 -14.1408
rtoes -1.02865
lfemur -28.886 5.22973 -19.3044
ltibia 71.3193
lfoot -1.3287 0.41071
ltoes -20.4093
